# xmcd
#
# Track frame offsets:
#	150
#	13709
#	30637
#	42040
#	52144
#	61365
#	70195
#	86369
#	100876
#	113440
#	125226
#	133674
#	150611
#	160406
#
# Disc length: 2358 seconds
#
# Revision: 1
# Processed by: cddbd v1.5.2PL0 Copyright (c) Steve Scherf et al.
# Submitted via: audiograbber 1.83.01
#
DISCID=b809340e
DTITLE=Tina Rauch - Live In Concert Vol. 3
DYEAR=2005
DGENRE=Country
TTITLE0=Crazy
TTITLE1=Blue Rose Is
TTITLE2=Don't It Make My Brown Eyes Blue
TTITLE3=Waiting For A Train
TTITLE4=Noone Needs To Know
TTITLE5=Curley Joe
TTITLE6=Silver Haired Daddy
TTITLE7=Cow Cow Boogie
TTITLE8=Sing Me Back Home
TTITLE9=Falling In Love
TTITLE10=Old Slewfoot
TTITLE11=Dark As A Dungeon
TTITLE12=All The Gold In California
TTITLE13=Lazy Country Evening
EXTD=
EXTT0=
EXTT1=
EXTT2=
EXTT3=
EXTT4=
EXTT5=
EXTT6=
EXTT7=
EXTT8=
EXTT9=
EXTT10=
EXTT11=
EXTT12=
EXTT13=
PLAYORDER=
